<svg version="1" xmlns="http://www.w3.org/2000/svg" width="933.333" height="933.333" viewBox="0 0 700.000000 700.000000"><path d="M318 21.1c-54.8 4.8-103.3 22.8-141.5 52.7-9.7 7.6-28.9 27.1-36.2 36.7-21.7 28.8-34.6 58.8-40.4 94.5-3.2 19.6-2.2 62.3 2 83.5 6.1 31 16.6 51.5 26.4 51.5 4.1 0 6.3-4.1 9.3-16.8 8-34.8 23.2-68.5 42.8-94.7 7-9.4 30.7-33.5 32.9-33.5.8 0 5.1 2.9 9.4 6.4 19.7 15.9 39.2 28.9 53.3 35.5 19 8.9 29.5 8.1 34.2-2.6 1.7-3.8 2-6.1 1.6-12.4l-.5-7.9 9.1 8.8c35.2 33.8 56 47.5 61.7 40.5 3.4-4.1-.5-22.2-8.7-40.1-1.9-4.1-3.2-7.7-2.9-8 .3-.3 1.8.6 3.3 2 9.1 8.6 30.1 17.9 53.2 23.8 20.9 5.3 53.3 9.6 80.7 10.8 9.5.4 17.4 1 17.6 1.2.3.3 10 19.4 21.6 42.5 11.6 23.1 21.8 42.9 22.8 44 10.3 11.7 19.2 4 25.3-22 5.2-21.6 7.4-48.8 6.7-82.1-.5-27.9-1.5-33.9-8.7-55.8-22-65.7-81.1-121.9-153-145.4-21.4-7-36.9-10.4-59-12.7-14.5-1.6-47.1-1.8-63-.4z"/><path d="M247.4 331.6c-6 1.5-11.8 7.3-13.4 13.4-.7 2.7-1 12.1-.8 26.9.3 25.4.6 26.4 8.1 32.5 3.5 2.8 4.5 3.1 11.1 3.1 6.2 0 7.8-.4 11.3-2.7 2.5-1.6 4.9-4.4 6.2-7.2 2.1-4.2 2.2-5.5 1.9-29.3l-.3-25-2.7-4.1c-4.6-6.9-12.7-9.8-21.4-7.6zM444 331c-5.6 1-9.8 3.7-12.8 8.2l-2.7 4.1-.3 25c-.3 23.8-.2 25.1 1.9 29.3 1.3 2.8 3.7 5.6 6.2 7.2 3.5 2.3 5.1 2.7 11.3 2.7 6.6 0 7.6-.3 11.1-3.1 7.5-6.1 7.8-7.1 8.1-32.5.2-14.5-.1-24.2-.8-26.8-1.1-4.1-5.7-10.4-9-12.1-3.1-1.7-9.4-2.6-13-2zM322.4 468.9c-7.7 3.5-12.4 12.9-10.5 21.1 1.1 5.2 3.1 8.2 7.8 11.7l3.6 2.8h53.4l3.6-2.8c4.7-3.5 6.7-6.5 7.8-11.7 1.9-8.2-2.8-17.6-10.5-21.1-3.6-1.6-6.8-1.9-27.6-1.9s-24 .3-27.6 1.9zM442.5 544.7c-1.1.3-3.9 1.8-6.2 3.4-14.8 10.2-45.7 15.9-86.3 15.9-38.6 0-69.1-5.3-84.5-14.8-15.4-9.4-31.5-1.8-31.5 14.9 0 10.4 7.5 17.9 24.7 24.7 23.8 9.4 50.4 13.3 91.3 13.3 26.7 0 44.1-1.4 62.5-5 26.8-5.3 46-14.3 51.4-24 4.8-8.7 2.2-20.4-5.8-25.6-3.8-2.6-11.6-4-15.6-2.8z"/></svg>